<?xml version="1.0" encoding="UTF-8" standalone="no"?>
<svg width="598px" height="792px" viewBox="0 0 598 792" version="1.1" xmlns="http://www.w3.org/2000/svg" xmlns:xlink="http://www.w3.org/1999/xlink" xmlns:sketch="http://www.bohemiancoding.com/sketch/ns">
    <!-- Generator: Sketch 3.1 (8751) - http://www.bohemiancoding.com/sketch -->
    <title>light102</title>
    <desc>Created with Sketch.</desc>
    <defs></defs>
    <g id="Page-1" stroke="none" stroke-width="1" fill="none" fill-rule="evenodd" sketch:type="MSPage">
        <g id="light102" sketch:type="MSLayerGroup" transform="translate(1.000000, 0.000000)" fill="#EA8BBA">
            <g id="Group" sketch:type="MSShapeGroup">
                <path d="M226.082,693.799 C219.25,693.799 213.681,688.256 213.681,681.424 C213.681,674.592 219.224,669.049 226.082,669.049 L369.942,669.049 C376.774,669.049 382.317,674.592 382.317,681.424 C382.317,688.256 376.774,693.799 369.942,693.799 L226.082,693.799 L226.082,693.799 Z" id="Shape"></path>
                <path d="M242.066,742.912 C235.234,742.912 229.691,737.369 229.691,730.537 C229.691,723.705 235.26,718.162 242.066,718.162 L353.957,718.162 C360.789,718.162 366.332,723.705 366.332,730.537 C366.332,737.369 360.789,742.912 353.957,742.912 L242.066,742.912 L242.066,742.912 Z" id="Shape"></path>
                <path d="M310.388,60.328 C310.388,67.16 304.845,72.703 298.012,72.703 C291.18,72.703 285.637,67.16 285.637,60.328 L285.637,12.375 C285.637,5.543 291.18,0 298.012,0 C304.846,0 310.388,5.543 310.388,12.375 L310.388,60.328 L310.388,60.328 Z" id="Shape"></path>
                <path d="M453.706,192.354 C493.538,232.186 518.211,287.255 518.211,348.047 C518.211,371.818 514.396,394.788 507.383,416.317 C500.139,438.566 489.388,459.32 475.853,477.832 C453.14,508.898 434.707,529.291 420.398,545.145 C394.642,573.633 383.35,586.113 383.35,627.775 C383.35,634.607 377.807,640.15 370.975,640.15 L370.664,640.15 L298.554,640.15 L226.109,640.15 C219.277,640.15 213.708,634.607 213.708,627.775 C213.708,586.525 202.184,573.918 176.609,545.893 L176.583,545.868 L176.557,545.893 C162.094,530.064 143.48,509.67 120.199,477.831 C106.664,459.319 95.913,438.54 88.669,416.291 C81.656,394.789 77.841,371.792 77.841,348.048 C77.841,318.297 83.797,289.834 94.573,263.846 L94.805,263.356 C105.994,236.543 122.288,212.412 142.371,192.355 C162.584,172.143 186.844,155.797 213.863,144.608 L213.863,144.582 C239.85,133.806 268.313,127.85 298.065,127.85 C327.767,127.85 356.202,133.806 382.216,144.582 C409.182,155.771 433.493,172.142 453.706,192.354 L453.706,192.354 L453.706,192.354 Z M493.435,348.047 C493.435,294.087 471.545,245.232 436.201,209.859 C418.13,191.786 396.601,177.246 372.779,167.397 C349.834,157.884 324.568,152.625 298.012,152.625 C271.483,152.625 246.218,157.884 223.298,167.397 L223.298,167.372 L223.246,167.397 C199.424,177.246 177.923,191.786 159.85,209.859 C141.958,227.751 127.495,249.098 117.62,272.662 L117.362,273.332 C107.875,296.251 102.59,321.517 102.59,348.046 C102.59,369.238 105.967,389.657 112.155,408.657 C118.626,428.43 128.139,446.84 140.102,463.236 C162.455,493.812 180.656,513.742 194.81,529.261 L194.784,529.286 C222.318,559.373 236.008,574.429 238.148,615.421 L298.502,615.421 L358.856,615.421 C360.97,574.146 374.402,559.244 402.065,528.667 C415.884,513.379 433.647,493.708 455.897,463.286 C467.859,446.915 477.373,428.507 483.818,408.733 C490.058,389.658 493.435,369.265 493.435,348.047 L493.435,348.047 Z" id="Shape"></path>
                <path d="M258.051,792 C251.219,792 245.676,786.457 245.676,779.625 C245.676,772.793 251.219,767.25 258.051,767.25 L337.974,767.25 C344.806,767.25 350.349,772.793 350.349,779.625 C350.349,786.457 344.806,792 337.974,792 L258.051,792 L258.051,792 Z" id="Shape"></path>
                <path d="M449.839,104.285 C446.46,110.163 438.906,112.2 433.002,108.823 C427.124,105.446 425.089,97.892 428.466,91.988 L452.443,50.455 C455.82,44.577 463.375,42.54 469.278,45.917 C475.182,49.294 477.193,56.848 473.816,62.752 L449.839,104.285 L449.839,104.285 Z" id="Shape"></path>
                <path d="M162.995,108.823 C157.117,112.2 149.563,110.163 146.186,104.285 L122.209,62.751 C118.832,56.873 120.868,49.319 126.747,45.942 C132.651,42.565 140.205,44.601 143.582,50.479 L167.533,92.013 C170.91,97.891 168.9,105.445 162.995,108.823 Z" id="Shape"></path>
                <path d="M59.69,190.781 C65.568,194.158 67.605,201.712 64.228,207.616 C60.851,213.494 53.296,215.531 47.418,212.154 L5.884,188.177 C-0.02,184.8 -2.056,177.246 1.321,171.368 C4.698,165.464 12.252,163.453 18.156,166.83 L59.69,190.781 L59.69,190.781 Z" id="Shape"></path>
                <path d="M548.606,212.154 C542.702,215.531 535.148,213.495 531.771,207.616 C528.393,201.712 530.43,194.158 536.308,190.781 L577.842,166.804 C583.744,163.427 591.298,165.463 594.677,171.342 C598.054,177.22 596.018,184.8 590.139,188.177 L548.606,212.154 L548.606,212.154 Z" id="Shape"></path>
                <path d="M169.441,396.954 C172.071,403.219 169.132,410.463 162.867,413.093 C156.602,415.723 149.358,412.783 146.728,406.519 C142.525,396.569 139.251,386.076 137.085,375.248 C134.945,364.549 133.785,353.618 133.785,342.635 C133.785,335.803 139.354,330.26 146.16,330.26 C152.992,330.26 158.535,335.829 158.535,342.635 C158.535,352.303 159.489,361.61 161.268,370.427 C163.099,379.603 165.883,388.523 169.441,396.954 L169.441,396.954 L169.441,396.954 Z M169.441,288.286 C166.812,294.551 159.567,297.49 153.302,294.86 C147.037,292.23 144.098,284.985 146.728,278.721 C150.878,268.898 155.957,259.591 161.758,250.954 L161.784,250.928 L161.758,250.903 C167.714,242.086 174.468,233.887 181.867,226.488 C189.189,219.166 197.388,212.411 206.307,206.405 L206.307,206.379 C214.867,200.604 224.225,195.525 234.125,191.349 C244.051,187.146 254.518,183.872 265.372,181.706 C276.071,179.54 287.054,178.406 298.011,178.406 C304.845,178.406 310.387,183.949 310.387,190.781 C310.387,197.613 304.844,203.156 298.011,203.156 C288.317,203.156 278.985,204.11 270.193,205.863 C260.989,207.694 252.094,210.504 243.69,214.061 C235.518,217.516 227.628,221.821 220.126,226.874 L220.126,226.874 L220.1,226.874 C212.804,231.772 205.843,237.547 199.398,243.993 C193.03,250.361 187.255,257.348 182.279,264.747 L182.253,264.721 C177.227,272.173 172.921,280.062 169.441,288.286 L169.441,288.286 Z" id="Shape"></path>
            </g>
        </g>
    </g>
</svg>